<svg width="32" height="32" viewBox="0 0 32 32" fill="none" xmlns="http://www.w3.org/2000/svg">
<circle cx="16" cy="16" r="16" fill="white"/>
<path d="M16.2413 8.80383C14.7185 7.53486 12.8574 6.60429 10.827 6.2659C10.3194 6.51969 9.81186 6.85808 9.30428 7.28107H9.21968C7.44313 6.77349 5.49739 7.53486 4.56682 9.14222C3.55164 10.8342 3.97463 12.9491 5.2436 14.2181C5.2436 14.2181 5.2436 14.2181 5.2436 14.3027C5.159 14.8103 5.159 15.3178 5.159 15.8254C5.159 18.7863 6.34336 21.4089 8.28911 23.4392C8.37371 23.5238 8.4583 23.4392 8.4583 23.3546C8.03532 22.1702 7.78152 20.9859 7.78152 19.6323C7.78152 18.1096 8.11991 16.756 8.6275 15.487C8.6275 15.487 8.6275 15.4024 8.7121 15.4024C9.89646 15.2332 11.0808 14.5565 11.7576 13.3721C12.1806 12.5261 12.2652 11.6801 12.1806 10.8342V10.7496C13.365 9.9036 14.7185 9.31141 16.1567 8.97302C16.3259 8.97302 16.3259 8.80383 16.2413 8.80383Z" fill="#FF6300"/>
<path d="M9.81254 19.0401C9.38955 20.9858 9.55875 23.1008 10.3201 25.0465C10.8277 25.3849 11.4199 25.6387 11.9275 25.8079C11.9275 25.8079 11.9275 25.8079 12.0121 25.8925C12.4351 27.669 14.0424 29.0226 15.9882 29.0226C17.9339 29.0226 19.5413 27.669 19.9642 25.8925C19.9642 25.8925 19.9642 25.8079 20.0488 25.8079C20.4718 25.6387 20.9794 25.3849 21.4024 25.1311C23.9403 23.693 25.7169 21.3242 26.3937 18.7017C26.3937 18.6171 26.3091 18.5325 26.2245 18.6171C25.4631 19.5477 24.4479 20.3937 23.3481 21.0704C22.0792 21.8318 20.7256 22.2548 19.2875 22.424H19.2029C18.4415 21.4934 17.2571 20.8166 15.9882 20.8166C15.0576 20.8166 14.2962 21.0704 13.6194 21.578H13.5348C12.1813 20.9858 10.9969 20.1399 9.98173 19.0401C9.98173 18.9555 9.89714 18.9555 9.81254 19.0401Z" fill="#FF6300"/>
<path d="M21.9098 19.4632C23.771 18.7864 25.5475 17.602 26.8165 15.9947C26.8165 15.4025 26.8165 14.8103 26.7319 14.2181V14.1335C28.0854 12.8646 28.4238 10.7496 27.4087 9.14227C26.4781 7.45032 24.4477 6.77354 22.6712 7.28113H22.5866C22.1636 6.94274 21.7406 6.68894 21.3176 6.43515C18.7797 4.99699 15.8188 4.6586 13.1963 5.33538C13.1117 5.33538 13.1117 5.50458 13.1963 5.50458C14.3806 5.75837 15.565 6.18136 16.7494 6.77354C18.0183 7.53492 19.1181 8.46549 19.9641 9.56526V9.64986C19.5411 10.7496 19.5411 12.1032 20.2179 13.2876C20.6408 14.0489 21.3176 14.6411 22.079 14.9795C22.079 14.9795 22.1636 14.9795 22.1636 15.0641C22.3328 16.5023 22.1636 17.9404 21.7406 19.3786C21.8252 19.4632 21.8252 19.4632 21.9098 19.4632Z" fill="#FF6300"/>
</svg>
