<svg width="32" height="32" viewBox="0 0 32 32" fill="none" xmlns="http://www.w3.org/2000/svg">
<circle cx="16" cy="16" r="16" fill="#111418"/>
<path d="M6.77344 23.7805L6.84579 23.9885C6.83675 23.9659 6.80961 23.8935 6.77344 23.7805ZM9.70828 19.0368C9.83942 17.9108 10.2826 17.2822 11.1147 16.6356C12.3085 15.7628 13.7963 16.2557 13.7963 16.2557V13.3209C14.158 13.3118 14.5198 13.3344 14.877 13.3887V17.1647C14.877 17.1647 13.3893 16.6718 12.1954 17.5445C11.3634 18.1912 10.9202 18.8198 10.7891 19.9458C10.7845 20.5562 10.8931 21.3566 11.3995 22.044C11.2729 21.9762 11.1463 21.8993 11.0152 21.8134C9.90725 21.0356 9.70376 19.8644 9.70828 19.0368ZM21.0316 7.89437C20.2131 6.95829 19.9011 6.00865 19.788 5.3439H20.8191C20.8191 5.3439 20.6156 7.08943 22.1124 8.80331L22.135 8.82592C21.728 8.56364 21.3572 8.24709 21.0316 7.89437ZM26.0014 10.5534V14.2524C26.0014 14.2524 24.6855 14.1982 23.7087 13.9404C22.3475 13.5786 21.4748 13.0224 21.4748 13.0224C21.4748 13.0224 20.8688 12.6245 20.8236 12.5973V20.2397C20.8236 20.6648 20.7105 21.7275 20.3714 22.6138C19.9282 23.7714 19.2409 24.5357 19.1142 24.6894C19.1142 24.6894 18.2777 25.7205 16.808 26.4124C15.483 27.0364 14.3163 27.0228 13.9681 27.0364C13.9681 27.0364 11.9558 27.1178 10.1424 25.8923C9.74898 25.621 9.38269 25.3135 9.04805 24.9743L9.0571 24.9834C10.8705 26.2134 12.8828 26.1275 12.8828 26.1275C13.231 26.1139 14.3977 26.1275 15.7227 25.5034C17.1923 24.8115 18.0289 23.7805 18.0289 23.7805C18.1556 23.6267 18.8429 22.8625 19.2861 21.7048C19.6252 20.8185 19.7383 19.7558 19.7383 19.3307V11.6929C19.788 11.7201 20.3895 12.118 20.3895 12.118C20.3895 12.118 21.2622 12.6742 22.6234 13.036C23.6002 13.2937 24.9161 13.348 24.9161 13.348V10.4494C25.3683 10.5534 25.7527 10.5805 26.0014 10.5534Z" fill="#EE1D52"/>
<path d="M24.9164 10.4448V13.3435C24.9164 13.3435 23.6005 13.2892 22.6237 13.0315C21.2626 12.6697 20.3898 12.1135 20.3898 12.1135C20.3898 12.1135 19.7839 11.7155 19.7386 11.6884V19.3307C19.7386 19.7558 19.6256 20.8185 19.2864 21.7049C18.8433 22.8625 18.1559 23.6267 18.0293 23.7805C18.0293 23.7805 17.1927 24.8115 15.723 25.5034C14.398 26.1275 13.2313 26.1139 12.8831 26.1275C12.8831 26.1275 10.8708 26.2089 9.05744 24.9834L9.0484 24.9743C8.85847 24.7799 8.67759 24.5764 8.51027 24.3638C7.93144 23.6267 7.57872 22.7585 7.48828 22.5098V22.5053C7.34357 22.0757 7.04511 21.0356 7.08581 20.0362C7.15816 18.2681 7.75508 17.1782 7.91335 16.9069C8.32938 16.1653 8.87656 15.5005 9.5187 14.9443C10.0885 14.465 10.7351 14.0806 11.427 13.8138C12.1777 13.4972 12.9826 13.3299 13.7966 13.3164V16.2512C13.7966 16.2512 12.3088 15.7583 11.115 16.6311C10.2829 17.2777 9.83977 17.9063 9.70862 19.0323C9.7041 19.8598 9.9076 21.0311 11.02 21.8134C11.1512 21.8993 11.2778 21.9762 11.4044 22.044C11.5989 22.3063 11.834 22.5369 12.1053 22.7268C13.1952 23.4459 14.1041 23.4956 15.2708 23.0298C16.0486 22.7178 16.632 22.0169 16.9033 21.2346C17.0751 20.7462 17.0706 20.2578 17.0706 19.7513V5.3439H19.7839C19.8969 6.00865 20.2044 6.95829 21.0274 7.89437C21.3575 8.24709 21.7284 8.56364 22.1308 8.82592C22.2484 8.95706 22.8589 9.59015 23.6457 9.98357C24.0482 10.1871 24.4778 10.3408 24.9164 10.4448Z" fill="white"/>
<path d="M6.40625 21.6145L6.47408 21.8089C6.46504 21.7863 6.4379 21.7185 6.40625 21.6145Z" fill="#69C9D0"/>
<path d="M11.4265 13.8183C10.7301 14.0851 10.088 14.4695 9.51822 14.9488C8.87156 15.505 8.32891 16.1743 7.91288 16.9159C7.75461 17.1872 7.15769 18.2725 7.08534 20.0452C7.04464 21.0491 7.34762 22.0847 7.4878 22.5143V22.5188C7.57824 22.763 7.93097 23.6358 8.5098 24.3729C8.67711 24.5854 8.858 24.7889 9.04793 24.9833C8.43292 24.5583 7.89027 24.0473 7.42449 23.4639C6.85019 22.7359 6.49746 21.8721 6.40702 21.6189V21.6099C6.26231 21.1803 5.95933 20.1402 6.00455 19.1363C6.07691 17.3681 6.67382 16.2783 6.8321 16.007C7.24813 15.2654 7.79078 14.5961 8.43744 14.0399C9.00723 13.5605 9.65389 13.1761 10.3458 12.9093C10.7799 12.7285 11.2321 12.5973 11.6934 12.5114C12.3898 12.3893 13.0997 12.3803 13.8006 12.4797V13.3209C12.9821 13.3344 12.1772 13.5017 11.4265 13.8183Z" fill="#69C9D0"/>
<path d="M19.7857 5.34388H17.0724V19.7513C17.0724 20.2578 17.0724 20.7461 16.9051 21.2345C16.6293 22.0123 16.0459 22.7178 15.2726 23.0298C14.1059 23.5001 13.1925 23.4458 12.1072 22.7268C11.8358 22.5414 11.6007 22.3108 11.4062 22.0485C12.3333 22.5414 13.1608 22.5324 14.1873 22.1209C14.9651 21.8088 15.5485 21.1034 15.8198 20.3256C15.9917 19.8372 15.9871 19.3488 15.9871 18.8423V4.43494H19.736C19.7314 4.43494 19.6907 4.79218 19.7857 5.34388ZM24.9138 9.64439V10.4448C24.4751 10.3408 24.0455 10.187 23.643 9.98355C22.8607 9.59465 22.2502 8.95703 22.1281 8.82589C22.2683 8.91634 22.4085 8.99773 22.5577 9.07461C23.5164 9.54943 24.4525 9.69414 24.9138 9.64439Z" fill="#69C9D0"/>
</svg>
