<svg width="32" height="32" viewBox="0 0 32 32" fill="none" xmlns="http://www.w3.org/2000/svg">
<rect width="32" height="32" rx="16" fill="#FF0000"/>
<path d="M13.3337 19.9998L20.2537 15.9998L13.3337 11.9998V19.9998ZM28.747 9.55984C28.9203 10.1865 29.0403 11.0265 29.1203 12.0932C29.2137 13.1598 29.2537 14.0798 29.2537 14.8798L29.3337 15.9998C29.3337 18.9198 29.1203 21.0665 28.747 22.4398C28.4137 23.6398 27.6403 24.4132 26.4403 24.7465C25.8137 24.9198 24.667 25.0398 22.907 25.1198C21.1737 25.2132 19.587 25.2532 18.1203 25.2532L16.0003 25.3332C10.4137 25.3332 6.93366 25.1198 5.56033 24.7465C4.36033 24.4132 3.58699 23.6398 3.25366 22.4398C3.08033 21.8132 2.96033 20.9732 2.88033 19.9065C2.78699 18.8398 2.74699 17.9198 2.74699 17.1198L2.66699 15.9998C2.66699 13.0798 2.88033 10.9332 3.25366 9.55984C3.58699 8.35984 4.36033 7.5865 5.56033 7.25317C6.18699 7.07984 7.33366 6.95984 9.09366 6.87984C10.827 6.7865 12.4137 6.7465 13.8803 6.7465L16.0003 6.6665C21.587 6.6665 25.067 6.87984 26.4403 7.25317C27.6403 7.5865 28.4137 8.35984 28.747 9.55984Z" fill="white"/>
</svg>
