<svg width="24" height="24" viewBox="0 0 24 24" fill="none" color="#F12618" xmlns="http://www.w3.org/2000/svg">
<g id="access-point">
<path id="Vector" d="M4.93 4.92969C3.12 6.73969 2 9.23969 2 11.9997C2 14.7597 3.12 17.2597 4.93 19.0697L6.34 17.6597C4.89 16.2197 4 14.2197 4 11.9997C4 9.78969 4.89 7.77969 6.34 6.33969L4.93 4.92969ZM19.07 4.92969L17.66 6.33969C19.11 7.77969 20 9.78969 20 11.9997C20 14.2197 19.11 16.2197 17.66 17.6597L19.07 19.0697C20.88 17.2597 22 14.7597 22 11.9997C22 9.23969 20.88 6.73969 19.07 4.92969ZM7.76 7.75969C6.67 8.84969 6 10.3497 6 11.9997C6 13.6497 6.67 15.1497 7.76 16.2397L9.17 14.8297C8.45 14.1097 8 13.1097 8 11.9997C8 10.8897 8.45 9.88969 9.17 9.16969L7.76 7.75969ZM16.24 7.75969L14.83 9.16969C15.55 9.88969 16 10.8897 16 11.9997C16 13.1097 15.55 14.1097 14.83 14.8297L16.24 16.2397C17.33 15.1497 18 13.6497 18 11.9997C18 10.3497 17.33 8.84969 16.24 7.75969ZM12 9.99969C11.4696 9.99969 10.9609 10.2104 10.5858 10.5855C10.2107 10.9605 10 11.4693 10 11.9997C10 12.5301 10.2107 13.0388 10.5858 13.4139C10.9609 13.789 11.4696 13.9997 12 13.9997C12.5304 13.9997 13.0391 13.789 13.4142 13.4139C13.7893 13.0388 14 12.5301 14 11.9997C14 11.4693 13.7893 10.9605 13.4142 10.5855C13.0391 10.2104 12.5304 9.99969 12 9.99969Z" fill="currentColor"/>
</g>
</svg>
