<svg width="29" height="28" viewBox="0 0 29 28" color="black" fill="none" xmlns="http://www.w3.org/2000/svg">
<path d="M11.2513 14.0007H14.7513M14.7513 14.0007H18.2513M14.7513 14.0007V10.5007M14.7513 14.0007V17.5007M5.41797 24.9673V3.03398C5.41797 2.84833 5.49172 2.67029 5.62299 2.53901C5.75427 2.40773 5.93232 2.33398 6.11797 2.33398H19.712C19.8976 2.33415 20.0755 2.408 20.2066 2.53932L23.8793 6.21198C23.9446 6.2772 23.9964 6.35469 24.0316 6.43998C24.0668 6.52528 24.0849 6.6167 24.0846 6.70898V24.9673C24.0846 25.0592 24.0665 25.1503 24.0314 25.2352C23.9962 25.3201 23.9446 25.3973 23.8796 25.4623C23.8146 25.5273 23.7374 25.5789 23.6525 25.614C23.5676 25.6492 23.4766 25.6673 23.3846 25.6673H6.11797C6.02604 25.6673 5.93502 25.6492 5.85009 25.614C5.76516 25.5789 5.688 25.5273 5.62299 25.4623C5.55799 25.3973 5.50643 25.3201 5.47125 25.2352C5.43607 25.1503 5.41797 25.0592 5.41797 24.9673Z" stroke="currentColor" stroke-width="2" stroke-linecap="square" stroke-linejoin="bevel"/>
<path d="M18.75 2.33398V6.30065C18.75 6.4863 18.8237 6.66435 18.955 6.79563C19.0863 6.9269 19.2643 7.00065 19.45 7.00065H23.4167" stroke="currentColor" stroke-width="2" stroke-linecap="square" stroke-linejoin="bevel"/>
</svg>
