<svg width="36" height="36" viewBox="0 0 36 36" fill="#E3E3E8" stroke="#4F555F" xmlns="http://www.w3.org/2000/svg">
<rect width="36" height="36" rx="18" stroke="none"/>
<path opacity="0.5" d="M18 28C23.5228 28 28 23.5228 28 18C28 12.4772 23.5228 8 18 8C12.4772 8 8 12.4772 8 18C8 23.5228 12.4772 28 18 28Z" stroke-width="2" stroke-linecap="round" stroke-linejoin="round"/>
<path opacity="0.5" d="M15.0898 15.0001C15.3249 14.3317 15.789 13.7682 16.3998 13.4092C17.0106 13.0502 17.7287 12.919 18.427 13.0388C19.1253 13.1586 19.7587 13.5216 20.2149 14.0636C20.6712 14.6056 20.9209 15.2916 20.9198 16.0001C20.9198 18.0001 17.9198 19.0001 17.9198 19.0001" stroke-width="2" stroke-linecap="round" stroke-linejoin="round"/>
<path opacity="0.5" d="M18 23H18.01" stroke-width="2" stroke-linecap="round" stroke-linejoin="round"/>
</svg>
