<svg width="24" height="24" viewBox="0 0 24 24" fill="none" xmlns="http://www.w3.org/2000/svg" color="#4F555F">
<path d="M14.6667 4.78947V3M14.6667 4.78947V6.57895M14.6667 4.78947H10.6667M7.55556 4.78947H5.77778C5.30628 4.78947 4.8541 4.97801 4.5207 5.3136C4.1873 5.64919 4 6.10435 4 6.57895V10.1579V18.2105C4 18.6851 4.1873 19.1403 4.5207 19.4759C4.8541 19.8115 5.30628 20 5.77778 20H18.2222C18.6937 20 19.1459 19.8115 19.4793 19.4759C19.8127 19.1403 20 18.6851 20 18.2105V10.1579V6.57895C20 6.10435 19.8127 5.64919 19.4793 5.3136C19.1459 4.97801 18.6937 4.78947 18.2222 4.78947H17.7778M7.55556 3V6.57895" stroke="currentColor" stroke-width="1.5" stroke-linecap="square" stroke-linejoin="bevel"/>
</svg>
