<svg width="28" height="28" viewBox="0 0 28 28" fill="none" xmlns="http://www.w3.org/2000/svg" color="#4F555F">
<path d="M6 15.417C6.26522 15.417 6.51957 15.3116 6.70711 15.1241C6.89464 14.9366 7 14.6822 7 14.417C7 14.1518 6.89464 13.8974 6.70711 13.7099C6.51957 13.5223 6.26522 13.417 6 13.417C5.73478 13.417 5.48043 13.5223 5.29289 13.7099C5.10536 13.8974 5 14.1518 5 14.417C5 14.6822 5.10536 14.9366 5.29289 15.1241C5.48043 15.3116 5.73478 15.417 6 15.417ZM14 15.417C14.2652 15.417 14.5196 15.3116 14.7071 15.1241C14.8946 14.9366 15 14.6822 15 14.417C15 14.1518 14.8946 13.8974 14.7071 13.7099C14.5196 13.5223 14.2652 13.417 14 13.417C13.7348 13.417 13.4804 13.5223 13.2929 13.7099C13.1054 13.8974 13 14.1518 13 14.417C13 14.6822 13.1054 14.9366 13.2929 15.1241C13.4804 15.3116 13.7348 15.417 14 15.417ZM22 15.417C22.2652 15.417 22.5196 15.3116 22.7071 15.1241C22.8946 14.9366 23 14.6822 23 14.417C23 14.1518 22.8946 13.8974 22.7071 13.7099C22.5196 13.5223 22.2652 13.417 22 13.417C21.7348 13.417 21.4804 13.5223 21.2929 13.7099C21.1054 13.8974 21 14.1518 21 14.417C21 14.6822 21.1054 14.9366 21.2929 15.1241C21.4804 15.3116 21.7348 15.417 22 15.417Z" fill="#4F555F" stroke="currentColor" stroke-width="2" stroke-linecap="round" stroke-linejoin="round"/>
</svg>
