<svg width="28" height="28" viewBox="0 0 28 28" fill="none" xmlns="http://www.w3.org/2000/svg">
<g filter="url(#filter0_b_9871_164669)">
<circle cx="14" cy="14" r="14" fill="#434D6E" fill-opacity="0.2"/>
</g>
<path d="M6 15.418C6.26522 15.418 6.51957 15.3126 6.70711 15.1251C6.89464 14.9375 7 14.6832 7 14.418C7 14.1528 6.89464 13.8984 6.70711 13.7109C6.51957 13.5233 6.26522 13.418 6 13.418C5.73478 13.418 5.48043 13.5233 5.29289 13.7109C5.10536 13.8984 5 14.1528 5 14.418C5 14.6832 5.10536 14.9375 5.29289 15.1251C5.48043 15.3126 5.73478 15.418 6 15.418ZM14 15.418C14.2652 15.418 14.5196 15.3126 14.7071 15.1251C14.8946 14.9375 15 14.6832 15 14.418C15 14.1528 14.8946 13.8984 14.7071 13.7109C14.5196 13.5233 14.2652 13.418 14 13.418C13.7348 13.418 13.4804 13.5233 13.2929 13.7109C13.1054 13.8984 13 14.1528 13 14.418C13 14.6832 13.1054 14.9375 13.2929 15.1251C13.4804 15.3126 13.7348 15.418 14 15.418ZM22 15.418C22.2652 15.418 22.5196 15.3126 22.7071 15.1251C22.8946 14.9375 23 14.6832 23 14.418C23 14.1528 22.8946 13.8984 22.7071 13.7109C22.5196 13.5233 22.2652 13.418 22 13.418C21.7348 13.418 21.4804 13.5233 21.2929 13.7109C21.1054 13.8984 21 14.1528 21 14.418C21 14.6832 21.1054 14.9375 21.2929 15.1251C21.4804 15.3126 21.7348 15.418 22 15.418Z" fill="white" stroke="white" stroke-width="2" stroke-linecap="round" stroke-linejoin="round"/>
<defs>
<filter id="filter0_b_9871_164669" x="-10" y="-10" width="48" height="48" filterUnits="userSpaceOnUse" color-interpolation-filters="sRGB">
<feFlood flood-opacity="0" result="BackgroundImageFix"/>
<feGaussianBlur in="BackgroundImageFix" stdDeviation="5"/>
<feComposite in2="SourceAlpha" operator="in" result="effect1_backgroundBlur_9871_164669"/>
<feBlend mode="normal" in="SourceGraphic" in2="effect1_backgroundBlur_9871_164669" result="shape"/>
</filter>
</defs>
</svg>
