<svg width="16" height="16" viewBox="0 0 16 16" fill="none" color="white" xmlns="http://www.w3.org/2000/svg">
<path fill-rule="evenodd" clip-rule="evenodd" d="M8 16C12.4183 16 16 12.4183 16 8C16 3.58172 12.4183 0 8 0C3.58172 0 0 3.58172 0 8C0 12.4183 3.58172 16 8 16ZM8.75269 9.5005L8.92869 4.1875H7.26769L7.45469 9.5005H8.75269ZM7.44369 11.8215C7.62702 11.9902 7.85802 12.0745 8.13669 12.0745C8.40802 12.0745 8.63169 11.9902 8.80769 11.8215C8.98369 11.6455 9.07169 11.4292 9.07169 11.1725C9.07169 10.9158 8.98369 10.7032 8.80769 10.5345C8.63169 10.3585 8.40802 10.2705 8.13669 10.2705C7.85802 10.2705 7.62702 10.3585 7.44369 10.5345C7.26769 10.7032 7.17969 10.9158 7.17969 11.1725C7.17969 11.4292 7.26769 11.6455 7.44369 11.8215Z" fill="currentColor"/>
</svg>
