<svg width="25" height="24" viewBox="0 0 25 24" fill="none" xmlns="http://www.w3.org/2000/svg" color="red">
<path d="M7.24475 11.1111C7.86143 11.1111 8.42519 11.4552 8.70098 12C8.97677 12.5448 9.54052 12.8889 10.1572 12.8889H15.3447C15.9614 12.8889 16.5252 12.5448 16.801 12C17.0768 11.4552 17.6405 11.1111 18.2572 11.1111M10.0209 4H15.4811C16.4503 4 16.9348 4 17.3627 4.14575C17.741 4.27463 18.0856 4.48497 18.3715 4.76155C18.6948 5.07431 18.9116 5.5024 19.345 6.35856L21.2949 10.2102C21.465 10.5462 21.55 10.7142 21.61 10.8903C21.6633 11.0466 21.7017 11.2075 21.7249 11.3709C21.751 11.5549 21.751 11.7427 21.751 12.1183V13.9556C21.751 15.449 21.751 17.9735 21.4567 18.544C21.1978 19.0457 20.7848 19.4537 20.2768 19.7094C19.6992 20 18.9431 20 17.431 20H8.07098C6.55883 20 5.80276 20 5.2252 19.7094C4.71716 19.4537 4.30412 19.0457 4.04526 18.544C3.75098 17.9735 3.75098 15.449 3.75098 13.9556V12.1183C3.75098 11.7427 3.75098 11.5549 3.77705 11.3709C3.80021 11.2075 3.83867 11.0466 3.89193 10.8903C3.95191 10.7142 4.03696 10.5462 4.20705 10.2102L6.15696 6.35855C6.59039 5.50239 6.80711 5.07431 7.13043 4.76155C7.41634 4.48497 7.76094 4.27463 8.13928 4.14575C8.5671 4 9.0517 4 10.0209 4Z" stroke="currentColor" stroke-width="1.5" stroke-linecap="square" stroke-linejoin="bevel"/>
</svg>
