<svg width="16" height="16" viewBox="0 0 16 16" fill="none" xmlns="http://www.w3.org/2000/svg" color="#4F555F">
<g id="info">
<path id="Subtract" fill-rule="evenodd" clip-rule="evenodd" d="M8.0026 14.6693C11.6845 14.6693 14.6693 11.6845 14.6693 8.0026C14.6693 4.32071 11.6845 1.33594 8.0026 1.33594C4.32071 1.33594 1.33594 4.32071 1.33594 8.0026C1.33594 11.6845 4.32071 14.6693 8.0026 14.6693ZM8 7.00195C8.55228 7.00195 9 7.44967 9 8.00195V10.6686C9 11.2209 8.55228 11.6686 8 11.6686C7.44772 11.6686 7 11.2209 7 10.6686V8.00195C7 7.44967 7.44772 7.00195 8 7.00195ZM8 4.33594C7.44772 4.33594 7 4.78365 7 5.33594C7 5.88822 7.44772 6.33594 8 6.33594H8.00708C8.55937 6.33594 9.00708 5.88822 9.00708 5.33594C9.00708 4.78365 8.55937 4.33594 8.00708 4.33594H8Z" fill="currentColor"/>
</g>
</svg>
