<svg width="24" height="24" viewBox="0 0 24 24" fill="none" color="#FE7121" xmlns="http://www.w3.org/2000/svg">
<path d="M4.79688 20.4611V3.54003C4.79687 3.39681 4.85377 3.25945 4.95505 3.15817C5.05632 3.0569 5.19368 3 5.33691 3H15.8244C15.9676 3.00013 16.1048 3.05711 16.206 3.15841L19.0394 5.99179C19.0898 6.0421 19.1297 6.10188 19.1569 6.16768C19.1841 6.23349 19.198 6.30402 19.1978 6.37521V20.4611C19.1978 20.532 19.1838 20.6023 19.1567 20.6678C19.1295 20.7333 19.0898 20.7928 19.0396 20.843C18.9895 20.8931 18.9299 20.9329 18.8644 20.96C18.7989 20.9872 18.7287 21.0011 18.6578 21.0011H5.33691C5.26599 21.0011 5.19577 20.9872 5.13025 20.96C5.06473 20.9329 5.00519 20.8931 4.95505 20.843C4.9049 20.7928 4.86512 20.7333 4.83798 20.6678C4.81084 20.6023 4.79687 20.532 4.79688 20.4611Z" stroke="currentColor" stroke-width="2" stroke-linecap="square" stroke-linejoin="bevel"/>
<path d="M14.6875 3.15234V6.40049C14.6875 6.55962 14.7507 6.71224 14.8632 6.82476C14.9758 6.93728 15.1284 7.00049 15.2875 7.00049H18.6875" stroke="currentColor" stroke-width="2.22208" stroke-linecap="square" stroke-linejoin="bevel"/>
</svg>
