<svg width="22" height="22" viewBox="0 0 22 22" fill="none" xmlns="http://www.w3.org/2000/svg" color="#4F555F">
<path fill-rule="evenodd" clip-rule="evenodd" d="M1.75 11C1.75 5.89137 5.89137 1.75 11 1.75C16.1086 1.75 20.25 5.89137 20.25 11C20.25 16.1086 16.1086 20.25 11 20.25C5.89137 20.25 1.75 16.1086 1.75 11ZM11 0.25C5.06294 0.25 0.25 5.06294 0.25 11C0.25 16.9371 5.06294 21.75 11 21.75C16.9371 21.75 21.75 16.9371 21.75 11C21.75 5.06294 16.9371 0.25 11 0.25ZM11.75 7V6.25H10.25V7V10.25H7H6.25V11.75H7H10.25V15V15.75H11.75V15V11.75H15H15.75V10.25H15H11.75V7Z" fill="currentColor"/>
</svg>
