<svg width="25" height="24" viewBox="0 0 25 24" fill="none" xmlns="http://www.w3.org/2000/svg">
<path d="M15.4176 4.78947V3M15.4176 4.78947V6.57895M15.4176 4.78947H11.4176M8.30653 4.78947H6.52875C6.05726 4.78947 5.60507 4.97801 5.27168 5.3136C4.93828 5.64919 4.75098 6.10435 4.75098 6.57895V10.1579V18.2105C4.75098 18.6851 4.93828 19.1403 5.27168 19.4759C5.60507 19.8115 6.05726 20 6.52875 20H18.9732C19.4447 20 19.8969 19.8115 20.2303 19.4759C20.5637 19.1403 20.751 18.6851 20.751 18.2105V10.1579V6.57895C20.751 6.10435 20.5637 5.64919 20.2303 5.3136C19.8969 4.97801 19.4447 4.78947 18.9732 4.78947H18.5288M8.30653 3V6.57895" stroke="currentColor" stroke-width="1.5" stroke-linecap="square" stroke-linejoin="bevel"/>
</svg>
