<svg width="28" height="28" viewBox="0 0 28 28" fill="none" xmlns="http://www.w3.org/2000/svg" color="#111418">
<path d="M14 17.5C15.933 17.5 17.5 15.933 17.5 14C17.5 12.067 15.933 10.5 14 10.5C12.067 10.5 10.5 12.067 10.5 14C10.5 15.933 12.067 17.5 14 17.5Z" stroke="currentColor" stroke-width="2" stroke-linecap="round" stroke-linejoin="round"/>
<path d="M22.8929 12.128L21.6123 9.03564L23.3335 7.00004L21.0002 4.66671L18.9757 6.39682L15.8176 5.09807L15.0914 2.33337H12.8113L12.0741 5.13469L8.98864 6.43533L7.00016 4.66671L4.66683 7.00004L6.36242 9.08703L5.10141 12.1874L2.3335 12.8334V15.1667L5.1348 15.9315L6.4352 19.0164L4.66683 21L7.00016 23.3334L9.08985 21.6304L12.13 22.8811L12.8335 25.6667H15.1668L15.8721 22.8821L18.9645 21.6015C19.4798 21.9699 21.0002 23.3334 21.0002 23.3334L23.3335 21L21.6021 18.9577L22.883 15.8644L25.6667 15.1401L25.6668 12.8334L22.8929 12.128Z" stroke="currentColor" stroke-width="2" stroke-linecap="round"/>
</svg>
