<svg width="19" height="21" viewBox="0 0 19 21" fill="none" color="#FE7121" xmlns="http://www.w3.org/2000/svg">
<path d="M18 12.35C17.36 12.13 16.7 12 16 12C16 8.13 12.87 5 9 5C5.13 5 2 8.13 2 12C2 15.87 5.13 19 9 19C9.37 19 9.72 18.96 10.08 18.91C10.18 19.6 10.4 20.25 10.71 20.83C10.16 20.94 9.59 21 9 21C4.03 21 0 16.97 0 12C0 7.03 4.03 3 9 3C11.12 3 13.07 3.74 14.62 5L16.04 3.56C16.55 4 17 4.46 17.45 4.97L16.03 6.39C17.26 7.93 18 9.88 18 12C18 12.12 18 12.23 18 12.35ZM8 13H10V7H8V13ZM12 0H6V2H12V0ZM16.63 15.5V20.5H18.5V15.5H16.63ZM13.5 20.5H15.38V15.5H13.5V20.5Z" fill="currentColor"/>
</svg>
