<svg width="52" height="52" viewBox="0 0 52 52" fill="none" xmlns="http://www.w3.org/2000/svg">
<circle cx="26" cy="26" r="25.7297" fill="#F2F2F6" stroke="#F2F2F6" stroke-width="0.540541"/>
<path d="M30 34.6719V32.7031C30 31.6588 29.5786 30.6573 28.8284 29.9189C28.0783 29.1805 27.0609 28.7656 26 28.7656H19C17.9391 28.7656 16.9217 29.1805 16.1716 29.9189C15.4214 30.6573 15 31.6588 15 32.7031V34.6719" stroke="#111418" stroke-width="1.71429" stroke-linecap="square" stroke-linejoin="bevel"/>
<path d="M22.5 24.8281C24.7091 24.8281 26.5 23.0652 26.5 20.8906C26.5 18.716 24.7091 16.9531 22.5 16.9531C20.2909 16.9531 18.5 18.716 18.5 20.8906C18.5 23.0652 20.2909 24.8281 22.5 24.8281Z" stroke="#111418" stroke-width="1.71429" stroke-linecap="square" stroke-linejoin="bevel"/>
<path d="M34 21.875V27.7812" stroke="#111418" stroke-width="1.71429" stroke-linecap="square" stroke-linejoin="bevel"/>
<path d="M37 24.8281H31" stroke="#111418" stroke-width="1.71429" stroke-linecap="square" stroke-linejoin="bevel"/>
</svg>
