<svg width="21" height="20" viewBox="0 0 21 20" fill="none" xmlns="http://www.w3.org/2000/svg" color="#111418">
<path d="M4.66602 16.6668V15.8335C4.66602 14.2864 5.2806 12.8027 6.37456 11.7087C7.46852 10.6147 8.95225 10.0002 10.4993 10.0002M10.4993 10.0002C12.0464 10.0002 13.5302 10.6147 14.6241 11.7087C15.7181 12.8027 16.3327 14.2864 16.3327 15.8335V16.6668M10.4993 10.0002C11.3834 10.0002 12.2313 9.64897 12.8564 9.02385C13.4815 8.39873 13.8327 7.55088 13.8327 6.66683C13.8327 5.78277 13.4815 4.93493 12.8564 4.30981C12.2313 3.68469 11.3834 3.3335 10.4993 3.3335C9.61529 3.3335 8.76745 3.68469 8.14233 4.30981C7.51721 4.93493 7.16602 5.78277 7.16602 6.66683C7.16602 7.55088 7.51721 8.39873 8.14233 9.02385C8.76745 9.64897 9.61529 10.0002 10.4993 10.0002Z" stroke="currentColor" stroke-width="1.5" stroke-linecap="square" stroke-linejoin="round"/>
</svg>
