<svg width="81" height="80" viewBox="0 0 81 80" fill="none" xmlns="http://www.w3.org/2000/svg" color="#F12618">
<path d="M3.83301 3.33337L77.1663 76.6667" stroke="currentColor" stroke-width="4" stroke-linecap="square" stroke-linejoin="bevel"/>
<path d="M56.2334 36.8667C58.9637 38.1992 61.5169 39.8677 63.8334 41.8334" stroke="currentColor" stroke-width="4" stroke-linecap="square" stroke-linejoin="bevel"/>
<path d="M15.8841 40.299L14.3498 41.5819L16.9155 44.6506L18.4499 43.3677L15.8841 40.299ZM18.4499 43.3677C23.1192 39.4637 28.7391 36.8657 34.738 35.838L34.0626 31.8954C27.3674 33.0424 21.0953 35.9419 15.8841 40.299L18.4499 43.3677Z" fill="currentColor"/>
<path d="M36.2002 16.8333C43.3416 16.2579 50.5257 17.1272 57.3237 19.3894C64.1217 21.6516 70.3942 25.2602 75.7669 30" stroke="currentColor" stroke-width="4" stroke-linecap="square" stroke-linejoin="bevel"/>
<path d="M3.90883 28.5015L2.41032 29.8261L5.05946 32.8231L6.55797 31.4985L3.90883 28.5015ZM6.55797 31.4985C11.0075 27.5655 16.1093 24.4393 21.6338 22.2606L20.1663 18.5395C14.2088 20.889 8.70709 24.2602 3.90883 28.5015L6.55797 31.4985Z" fill="currentColor"/>
<path d="M28.9336 53.7C32.3176 51.2958 36.3658 50.0042 40.5169 50.0042C44.668 50.0042 48.7163 51.2958 52.1003 53.7" stroke="currentColor" stroke-width="4" stroke-linecap="square" stroke-linejoin="bevel"/>
<path d="M40.5 66.6666H40.5338" stroke="currentColor" stroke-width="4" stroke-linecap="square" stroke-linejoin="bevel"/>
</svg>
